<svg width="64" height="64" viewBox="0 0 64 64" fill="none" xmlns="http://www.w3.org/2000/svg">
<path fill-rule="evenodd" clip-rule="evenodd" d="M36.5 36.527C36.5 35.9302 36.2626 35.3577 35.8408 34.9364C35.4189 34.514 34.8463 34.2773 34.25 34.2773C32.8752 34.2773 31.1247 34.2773 29.75 34.2773C29.1538 34.2773 28.5811 34.514 28.1592 34.9364C27.7374 35.3577 27.5 35.9302 27.5 36.527V52.279C27.5 52.8758 27.7374 53.4483 28.1592 53.8696C28.5811 54.292 29.1538 54.5287 29.75 54.5287H34.25C34.8463 54.5287 35.4189 54.292 35.8408 53.8696C36.2626 53.4483 36.5 52.8758 36.5 52.279C36.5 48.3823 36.5 40.4237 36.5 36.527Z" fill="url(#paint0_linear_5114_21457)"/>
<path fill-rule="evenodd" clip-rule="evenodd" d="M23 29.7742C23 29.1775 22.7626 28.605 22.3408 28.1825C21.9189 27.7601 21.3463 27.5234 20.75 27.5234C19.3752 27.5234 17.6247 27.5234 16.25 27.5234C15.6538 27.5234 15.0811 27.7601 14.6592 28.1825C14.2374 28.605 14 29.1775 14 29.7742V52.2763C14 52.8731 14.2374 53.4456 14.6592 53.8669C15.0811 54.2893 15.6538 54.526 16.25 54.526H20.75C21.3463 54.526 21.9189 54.2893 22.3408 53.8669C22.7626 53.4456 23 52.8731 23 52.2763C23 47.1907 23 34.8587 23 29.7742Z" fill="url(#paint1_linear_5114_21457)"/>
<path fill-rule="evenodd" clip-rule="evenodd" d="M9.5 38.7781C9.5 37.535 8.49312 36.5273 7.25 36.5273C5.87525 36.5273 4.12475 36.5273 2.75 36.5273C1.50688 36.5273 0.5 37.535 0.5 38.7781V52.2794C0.5 53.5214 1.50688 54.529 2.75 54.529H7.25C8.49312 54.529 9.5 53.5214 9.5 52.2794C9.5 48.8201 9.5 42.2363 9.5 38.7781Z" fill="url(#paint2_linear_5114_21457)"/>
<path fill-rule="evenodd" clip-rule="evenodd" d="M50 34.2781C50 33.6814 49.7626 33.1089 49.3408 32.6864C48.9189 32.264 48.3463 32.0273 47.75 32.0273C46.3752 32.0273 44.6247 32.0273 43.25 32.0273C42.6538 32.0273 42.0811 32.264 41.6592 32.6864C41.2374 33.1089 41 33.6814 41 34.2781V52.2798C41 52.8766 41.2374 53.4491 41.6592 53.8704C42.0811 54.2928 42.6538 54.5294 43.25 54.5294H47.75C48.3463 54.5294 48.9189 54.2928 49.3408 53.8704C49.7626 53.4491 50 52.8766 50 52.2798C50 47.9675 50 38.5893 50 34.2781Z" fill="url(#paint3_linear_5114_21457)"/>
<path fill-rule="evenodd" clip-rule="evenodd" d="M63.5 20.7731C63.5 19.5311 62.4931 18.5234 61.25 18.5234C59.8752 18.5234 58.1247 18.5234 56.75 18.5234C55.5069 18.5234 54.5 19.5311 54.5 20.7731V52.2772C54.5 53.5191 55.5069 54.5268 56.75 54.5268H61.25C62.4931 54.5268 63.5 53.5191 63.5 52.2772C63.5 45.8122 63.5 27.238 63.5 20.7731Z" fill="url(#paint4_linear_5114_21457)"/>
<path fill-rule="evenodd" clip-rule="evenodd" d="M55.8182 5L36.4997 24.3185L22.3405 10.1592C21.4618 9.28062 20.0376 9.28062 19.159 10.1592L1.15897 28.1592C0.280344 29.0367 0.280344 30.4633 1.15897 31.3408C2.03647 32.2194 3.46297 32.2194 4.34047 31.3408L20.7497 14.9315L34.909 29.0908C35.7876 29.9694 37.2119 29.9694 38.0905 29.0908L58.9997 8.1815V11.75C58.9997 12.992 60.0077 14 61.2497 14C62.4917 14 63.4997 12.992 63.4997 11.75V2.75C63.4997 1.50688 62.4929 0.5 61.2497 0.5H52.2497C51.0077 0.5 49.9997 1.508 49.9997 2.75C49.9997 3.992 51.0077 5 52.2497 5H55.8182Z" fill="url(#paint5_linear_5114_21457)"/>
<path fill-rule="evenodd" clip-rule="evenodd" d="M63.5 61.25C63.5 60.0069 62.4931 59 61.25 59C51.4512 59 12.5487 59 2.75 59C1.50688 59 0.5 60.0069 0.5 61.25C0.5 62.4931 1.50688 63.5 2.75 63.5H61.25C62.4931 63.5 63.5 62.4931 63.5 61.25Z" fill="url(#paint6_linear_5114_21457)"/>
<defs>
<linearGradient id="paint0_linear_5114_21457" x1="28.3415" y1="42.5397" x2="36.0981" y2="42.5115" gradientUnits="userSpaceOnUse">
<stop stop-color="#143BA2"/>
<stop offset="1" stop-color="#4B93FF"/>
</linearGradient>
<linearGradient id="paint1_linear_5114_21457" x1="14.8415" y1="38.5402" x2="22.5982" y2="38.5191" gradientUnits="userSpaceOnUse">
<stop stop-color="#143BA2"/>
<stop offset="1" stop-color="#4B93FF"/>
</linearGradient>
<linearGradient id="paint2_linear_5114_21457" x1="1.34146" y1="43.8719" x2="9.09812" y2="43.8402" gradientUnits="userSpaceOnUse">
<stop stop-color="#143BA2"/>
<stop offset="1" stop-color="#4B93FF"/>
</linearGradient>
<linearGradient id="paint3_linear_5114_21457" x1="41.8415" y1="41.208" x2="49.5982" y2="41.1826" gradientUnits="userSpaceOnUse">
<stop stop-color="#143BA2"/>
<stop offset="1" stop-color="#4B93FF"/>
</linearGradient>
<linearGradient id="paint4_linear_5114_21457" x1="55.3415" y1="33.2125" x2="63.0982" y2="33.1966" gradientUnits="userSpaceOnUse">
<stop stop-color="#143BA2"/>
<stop offset="1" stop-color="#4B93FF"/>
</linearGradient>
<linearGradient id="paint5_linear_5114_21457" x1="6.39022" y1="13.3516" x2="60.673" y2="12.4638" gradientUnits="userSpaceOnUse">
<stop stop-color="#143BA2"/>
<stop offset="1" stop-color="#4B93FF"/>
</linearGradient>
<linearGradient id="paint6_linear_5114_21457" x1="6.39024" y1="60.836" x2="59.9853" y2="54.7" gradientUnits="userSpaceOnUse">
<stop stop-color="#143BA2"/>
<stop offset="1" stop-color="#4B93FF"/>
</linearGradient>
</defs>
</svg>
